# xmcd
#
# Track frame offsets:
# 150
# 14129
# 28079
# 43514
# 55070
# 69056
# 86541
# 97599
# 114223
# 127687
# 146088
# 165251
# 177794
# 191737
# 211168
# 223543
# 237634
# 264671
# 285422
# 298950
#
# Disc length: 4350 seconds
#
# Revision: 1
# Processed by: cddbd v1.5PL3 Copyright (c) Steve Scherf et al.
# Submitted via: CedeCatalogueitor 2.6.0.0 http://personales.ya.com/cdcatalogueitor
#
DISCID=1610fc14
DTITLE=Norah Jones - Come Away With Me
DYEAR=1900
DGENRE=
TTITLE0=Don't Know Why
TTITLE1=Seven Years
TTITLE2=Cold Cold Heart
TTITLE3=Feelin' The Same Way
TTITLE4=Come Away With Me
TTITLE5=Shoot The Moon
TTITLE6=Turn Me On
TTITLE7=Lonestar
TTITLE8=I've Got To See You Again
TTITLE9=Painter Song
TTITLE10=One Flight Down
TTITLE11=Nightingale
TTITLE12=The Long Day Is Over
TTITLE13=The Nearness Of You
TTITLE14=Extra 1
TTITLE15=Extra 2
TTITLE16=Extra 3
TTITLE17=Extra 4
TTITLE18=Extra 5
TTITLE19=Extra 6
EXTD=
EXTT0=
EXTT1=
EXTT2=
EXTT3=
EXTT4=
EXTT5=
EXTT6=
EXTT7=
EXTT8=
EXTT9=
EXTT10=
EXTT11=
EXTT12=
EXTT13=
EXTT14=
EXTT15=
EXTT16=
EXTT17=
EXTT18=
EXTT19=
PLAYORDER=
